<?xml version="1.0" standalone="no"?>
<!DOCTYPE svg PUBLIC "-//W3C//DTD SVG 20010904//EN"
 "http://www.w3.org/TR/2001/REC-SVG-20010904/DTD/svg10.dtd">
<svg version="1.0" xmlns="http://www.w3.org/2000/svg"
 width="700.000000pt" height="700.000000pt" viewBox="0 0 700.000000 700.000000"
 preserveAspectRatio="xMidYMid meet">
<metadata>
Created by potrace 1.14, written by Peter Selinger 2001-2017
</metadata>
<g transform="translate(0.000000,700.000000) scale(0.100000,-0.100000)"
fill="#000000" stroke="none">
<path d="M3 6606 c4 -98 8 -180 11 -184 2 -4 7 -40 10 -81 35 -374 177 -780
377 -1078 267 -396 693 -664 1091 -685 21 -1 38 -3 38 -5 0 -1 -18 -35 -40
-75 -66 -119 -165 -326 -208 -433 -48 -120 -128 -363 -148 -450 -43 -188 -55
-245 -68 -320 -8 -49 -18 -119 -22 -155 -4 -36 -9 -74 -10 -85 -21 -158 -20
-549 2 -657 2 -13 7 -45 10 -73 3 -27 10 -66 14 -85 5 -19 11 -46 14 -60 28
-160 109 -389 205 -580 205 -410 521 -757 909 -999 208 -130 515 -258 733
-307 50 -11 67 -14 99 -21 19 -4 37 -8 40 -8 5 -1 76 -12 135 -21 121 -17 346
-22 490 -11 401 31 793 159 1130 370 546 342 964 921 1100 1525 15 65 45 225
49 262 27 221 23 547 -9 755 -3 17 -7 53 -10 80 -16 132 -77 396 -136 584 -71
225 -191 502 -299 688 -22 39 -40 72 -40 74 0 2 21 5 48 7 318 17 700 223 948
513 212 247 354 532 444 889 30 120 55 254 65 353 4 32 8 68 11 80 2 12 7 99
10 193 l7 170 -69 -7 c-166 -17 -190 -19 -214 -23 -26 -5 -154 -24 -205 -32
-59 -9 -371 -74 -405 -84 -19 -6 -42 -13 -50 -15 -95 -21 -354 -105 -485 -157
-320 -127 -635 -319 -810 -495 -45 -45 -158 -174 -178 -203 -57 -83 -89 -134
-108 -172 -12 -24 -22 -44 -24 -46 -1 -1 -37 14 -79 33 -88 40 -287 107 -373
126 -32 7 -60 13 -63 14 -3 1 -27 5 -55 10 -27 4 -59 9 -70 11 -98 18 -399 24
-535 11 -223 -22 -466 -85 -657 -173 -42 -19 -77 -33 -77 -32 -31 60 -61 114
-65 118 -3 3 -23 31 -44 62 -128 197 -371 411 -628 554 -285 158 -565 263
-979 369 -27 7 -165 36 -190 41 -14 2 -45 9 -70 14 -25 5 -61 12 -80 15 -130
19 -181 26 -225 31 -27 3 -52 7 -55 9 -3 2 -48 7 -100 10 -52 4 -99 10 -104
13 -5 3 -6 -69 -3 -172z"/>
</g>
</svg>
